<svg xmlns="http://www.w3.org/2000/svg" viewBox="0 0 1200 630">
  <defs>
    <linearGradient id="bg" x1="0" y1="0" x2="1200" y2="630" gradientUnits="userSpaceOnUse">
      <stop offset="0" stop-color="#0F0E20"/>
      <stop offset="1" stop-color="#2B0D73"/>
    </linearGradient>
    <linearGradient id="lg" x1="0" y1="0" x2="200" y2="200" gradientUnits="userSpaceOnUse">
      <stop offset="0" stop-color="#6528F7"/>
      <stop offset="1" stop-color="#7B4BFF"/>
    </linearGradient>
    <radialGradient id="glow" cx="0.8" cy="0.1" r="0.8">
      <stop offset="0" stop-color="#9779FF" stop-opacity="0.5"/>
      <stop offset="1" stop-color="#9779FF" stop-opacity="0"/>
    </radialGradient>
    <radialGradient id="glow2" cx="0.1" cy="0.9" r="0.7">
      <stop offset="0" stop-color="#72BF44" stop-opacity="0.4"/>
      <stop offset="1" stop-color="#72BF44" stop-opacity="0"/>
    </radialGradient>
  </defs>
  <rect width="1200" height="630" fill="url(#bg)"/>
  <rect width="1200" height="630" fill="url(#glow)"/>
  <rect width="1200" height="630" fill="url(#glow2)"/>
  <rect x="48" y="48" width="104" height="104" rx="30" fill="url(#lg)"/>
  <path d="M74 128h64a14 14 0 0 0 1-28 17 17 0 0 0-33-5.2A12.4 12.4 0 0 0 74 128Z" fill="#fff"/>
  <circle cx="134" cy="126" r="9.5" fill="#72BF44"/>
  <text x="176" y="98" font-family="Segoe UI, Arial, sans-serif" font-size="52" font-weight="700" fill="#fff">IN4<text x="274" y="98" fill="#9779FF"> Solutions</text></text>
  <text x="176" y="134" font-family="Segoe UI, Arial, sans-serif" font-size="22" fill="#B99CFF">Smart Digital Solutions for Modern Businesses</text>
  <text x="176" y="508" font-family="Segoe UI, Arial, sans-serif" font-size="26" fill="#8F8BB3">CloudHR · Visitor Management · Parking Management · By In4 Solution Pvt Ltd</text>
  <rect x="48" y="458" width="240" height="2" fill="#72BF44"/>
</svg>